<svg width="118" height="42" viewBox="0 0 118 42" fill="none" xmlns="http://www.w3.org/2000/svg">
<path d="M59.771 33.9539V21.7559H56.332V37.3929H66.426V33.9539H59.771Z" fill="#A2A9B2"/>
<path d="M51.86 24.8711C51.5107 24.1485 50.9903 23.522 50.344 23.0461C49.7576 22.6067 49.0962 22.2776 48.392 22.0751C47.6204 21.8558 46.8221 21.7451 46.02 21.7461H40.25V37.3931H43.689V33.2871H46.116C46.9791 33.2942 47.8362 33.1433 48.645 32.8421C49.4045 32.5603 50.0945 32.1183 50.668 31.5461C51.2211 31.0234 51.6511 30.3843 51.927 29.6751V29.6461C52.0558 29.3286 52.1562 29.0003 52.227 28.6651C52.3233 28.2164 52.3725 27.759 52.374 27.3001C52.3851 26.4623 52.2095 25.6326 51.86 24.8711ZM48.26 29.0991C47.9599 29.3733 47.6052 29.5809 47.2191 29.7081C46.833 29.8353 46.4243 29.8793 46.02 29.8371H43.689V25.1851H46.02C46.4563 25.1812 46.8914 25.2322 47.315 25.3371C47.663 25.4202 47.9923 25.5678 48.286 25.7721C48.4608 25.9156 48.611 26.0865 48.731 26.2781C48.8979 26.5878 48.9752 26.9379 48.954 27.2891C48.9596 27.4046 48.9495 27.5203 48.924 27.6331C48.8885 28.1862 48.6532 28.7075 48.262 29.1001L48.26 29.0991Z" fill="#A2A9B2"/>
<path d="M56.5797 11.9201C57.128 11.6556 57.6275 11.2999 58.0567 10.8681C58.6103 10.3315 59.0445 9.68406 59.3307 8.96811C59.6262 8.22099 59.7772 7.42456 59.7757 6.62111C59.7772 5.86042 59.6259 5.10719 59.3307 4.40611C59.3007 4.34511 59.2797 4.27511 59.2497 4.21411C59.087 3.86194 58.8797 3.53222 58.6327 3.23311C58.3801 2.92756 58.0992 2.64663 57.7937 2.39411C57.2077 1.95173 56.5463 1.61934 55.8417 1.41311C55.0498 1.1827 54.2283 1.07016 53.4037 1.07911H47.6387V16.7141H51.0777V12.6081H52.8577L55.7297 16.7141H59.9387L56.5797 11.9201ZM55.6287 8.42011C55.3304 8.69298 54.9784 8.90048 54.5952 9.02929C54.2121 9.15811 53.8062 9.20539 53.4037 9.16811H51.0777V4.51611H53.4037C55.3557 4.51611 56.3367 5.21611 56.3367 6.61611C56.3465 6.94843 56.2889 7.27929 56.1672 7.58868C56.0455 7.89807 55.8623 8.17955 55.6287 8.41611V8.42011Z" fill="#A2A9B2"/>
<path d="M71.9134 7.75215L74.0884 5.91115L79.8234 1.07715H74.4834L69.3254 5.42615L67.3834 7.06515V1.07715H63.9434V16.7141H67.3824V11.5561L69.2824 9.97815L75.9374 16.7141H80.7724L71.9134 7.75215Z" fill="#A2A9B2"/>
<path d="M24.578 1.07715L19.217 16.7141H15.859L12.319 6.90315L8.779 16.7141H5.379L0 1.07715H3.641L7.08 11.1261L10.762 1.07715H13.837L17.5 11.1261L20.957 1.07715H24.578Z" fill="#A2A9B2"/>
<path d="M74.295 34.0551L72.823 37.3931H69.0811L75.858 21.7461H79.439L86.239 37.3831H82.476L81.036 34.0461L74.295 34.0551ZM77.653 26.2971L75.772 30.6261H79.5551L77.653 26.2971Z" fill="#A2A9B2"/>
<path d="M97.4171 37.757C96.3175 37.761 95.2287 37.5409 94.2171 37.11C93.7332 36.9102 93.2719 36.6595 92.8411 36.362C92.4004 36.0626 91.9874 35.7242 91.6071 35.351C90.8605 34.6124 90.269 33.7322 89.8671 32.762C89.4398 31.7507 89.2197 30.6639 89.2197 29.566C89.2197 28.4681 89.4398 27.3814 89.8671 26.37C90.2692 25.3941 90.8605 24.5073 91.6069 23.7609C92.3534 23.0145 93.2401 22.4232 94.2161 22.021C95.2239 21.5937 96.3074 21.3735 97.4021 21.3735C98.4968 21.3735 99.5803 21.5937 100.588 22.021C101.565 22.4262 102.452 23.021 103.197 23.771L100.775 26.212C100.345 25.7658 99.829 25.4113 99.2581 25.17C98.6765 24.9343 98.0546 24.8141 97.4271 24.816C96.7909 24.8114 96.1606 24.9387 95.5761 25.19C95.0113 25.4285 94.4966 25.7716 94.0591 26.201C93.6285 26.6377 93.2854 27.1526 93.0481 27.718C92.801 28.3021 92.6737 28.9298 92.6737 29.564C92.6737 30.1982 92.801 30.826 93.0481 31.41C93.5338 32.5474 94.4398 33.4533 95.5771 33.939C96.1609 34.1926 96.7916 34.3201 97.4281 34.313C98.0558 34.3174 98.6782 34.197 99.2591 33.959C99.8319 33.7213 100.349 33.3664 100.776 32.917L103.203 35.344C102.462 36.1042 101.575 36.7057 100.594 37.112C99.5897 37.5401 98.5088 37.7595 97.4171 37.757Z" fill="#A2A9B2"/>
<path d="M110.753 25.1951V27.5211H117.085V30.9601H110.753V33.9541H117.327V37.3931H107.327V21.7461H117.327V25.1851L110.753 25.1951Z" fill="#A2A9B2"/>
<path d="M43.1894 8.865C43.1894 3.965 39.4894 0 34.9364 0C33.7474 0.00972075 32.5756 0.283978 31.5058 0.802876C30.436 1.32177 29.4951 2.0723 28.7514 3C27.6179 3.05753 26.5506 3.55131 25.773 4.37798C24.9953 5.20465 24.5676 6.30011 24.5794 7.435C24.5766 8.08879 24.7176 8.7352 24.9923 9.32845C25.2671 9.9217 25.6689 10.4473 26.1694 10.868L23.1694 21.539C22.7245 21.8469 22.3649 22.2626 22.1243 22.7472C21.8836 23.2318 21.7698 23.7695 21.7934 24.31C21.7698 24.8505 21.8836 25.3882 22.1243 25.8728C22.3649 26.3574 22.7245 26.7731 23.1694 27.081L26.5574 39.163C22.6834 39.239 19.7754 39.563 19.7754 39.957V41.181C19.7754 41.631 23.6134 42 28.3754 42C33.1374 42 36.9754 41.631 36.9754 41.181V39.952C36.9754 39.563 34.0574 39.234 30.1754 39.158L26.3234 25.594C26.6201 24.7634 26.6201 23.8556 26.3234 23.025L28.6804 14.635C29.35 15.4831 30.1827 16.1886 31.1294 16.7097C32.0761 17.2307 33.1176 17.5569 34.1924 17.669C33.1404 17.0085 32.2574 16.1112 31.6137 15.0488C30.9701 13.9864 30.5837 12.7883 30.4854 11.55C30.421 11.0841 30.3876 10.6144 30.3854 10.144C30.3801 9.86899 30.3902 9.5939 30.4154 9.32C30.4229 9.18091 30.4383 9.04236 30.4614 8.905C30.4611 8.77561 30.4766 8.64667 30.5074 8.521C30.5534 8.395 30.5734 8.137 30.6134 7.95C30.6196 7.8821 30.633 7.81505 30.6534 7.75C30.7044 7.527 30.7644 7.31 30.8304 7.093C30.8281 7.06605 30.8281 7.03895 30.8304 7.012C30.9064 6.774 30.9874 6.547 31.0734 6.324C31.3317 5.66562 31.6714 5.04212 32.0844 4.468C32.5685 3.75888 33.2115 3.17263 33.9622 2.75595C34.7129 2.33928 35.5505 2.1037 36.4084 2.068C39.7264 2.068 42.4164 5.694 42.4164 10.16C42.4205 11.4334 42.1907 12.6966 41.7384 13.887C42.6917 12.3859 43.1953 10.6432 43.1894 8.865Z" fill="#A2A9B2"/>
<path d="M36.6902 6.42773C37.1306 6.78309 37.4825 7.23567 37.7185 7.74994C37.9545 8.26422 38.068 8.82619 38.0502 9.39173C38.0502 11.2917 36.8212 12.8357 35.3042 12.8357H35.1982C35.598 13.1368 36.0838 13.3016 36.5842 13.3057C38.1012 13.3057 39.3302 11.7887 39.3302 9.86673C39.3302 7.94473 38.1562 6.49873 36.6902 6.42773Z" fill="#A2A9B2"/>
</svg>
