<svg width="118" height="42" viewBox="0 0 118 42" fill="none" xmlns="http://www.w3.org/2000/svg">
<path d="M59.771 33.954V21.756H56.332V37.393H66.426V33.954H59.771Z" fill="#708CEC"/>
<path d="M51.86 24.871C51.5107 24.1483 50.9903 23.5219 50.344 23.046C49.7576 22.6065 49.0962 22.2775 48.392 22.075C47.6204 21.8557 46.8221 21.745 46.02 21.746H40.25V37.393H43.689V33.287H46.116C46.9791 33.294 47.8362 33.1432 48.645 32.842C49.4045 32.5602 50.0945 32.1182 50.668 31.546C51.2211 31.0232 51.6511 30.3842 51.927 29.675V29.646C52.0558 29.3285 52.1562 29.0002 52.227 28.665C52.3233 28.2163 52.3725 27.7588 52.374 27.3C52.3851 26.4622 52.2095 25.6325 51.86 24.871ZM48.26 29.099C47.9599 29.3732 47.6052 29.5808 47.2191 29.708C46.833 29.8352 46.4243 29.8791 46.02 29.837H43.689V25.185H46.02C46.4563 25.181 46.8914 25.2321 47.315 25.337C47.663 25.4201 47.9923 25.5677 48.286 25.772C48.4608 25.9154 48.611 26.0863 48.731 26.278C48.8979 26.5877 48.9752 26.9378 48.954 27.289C48.9596 27.4045 48.9495 27.5202 48.924 27.633C48.8885 28.1861 48.6532 28.7074 48.262 29.1L48.26 29.099Z" fill="#708CEC"/>
<path d="M56.5797 11.92C57.128 11.6555 57.6275 11.2998 58.0567 10.868C58.6103 10.3314 59.0445 9.68393 59.3307 8.96799C59.6262 8.22087 59.7772 7.42443 59.7757 6.62099C59.7772 5.8603 59.6259 5.10706 59.3307 4.40599C59.3007 4.34499 59.2797 4.27499 59.2497 4.21399C59.087 3.86182 58.8797 3.5321 58.6327 3.23299C58.3801 2.92743 58.0992 2.64651 57.7937 2.39399C57.2077 1.9516 56.5463 1.61922 55.8417 1.41299C55.0498 1.18258 54.2283 1.07004 53.4037 1.07899H47.6387V16.714H51.0777V12.608H52.8577L55.7297 16.714H59.9387L56.5797 11.92ZM55.6287 8.41999C55.3304 8.69286 54.9784 8.90036 54.5952 9.02917C54.2121 9.15799 53.8062 9.20527 53.4037 9.16799H51.0777V4.51599H53.4037C55.3557 4.51599 56.3367 5.21599 56.3367 6.61599C56.3465 6.9483 56.2889 7.27916 56.1672 7.58855C56.0455 7.89794 55.8623 8.17943 55.6287 8.41599V8.41999Z" fill="#708CEC"/>
<path d="M71.9129 7.75203L74.0879 5.91103L79.8229 1.07703H74.4829L69.3249 5.42603L67.3829 7.06503V1.07703H63.9429V16.714H67.3819V11.556L69.2819 9.97803L75.9369 16.714H80.7719L71.9129 7.75203Z" fill="#708CEC"/>
<path d="M24.578 1.07703L19.217 16.714H15.859L12.319 6.90303L8.779 16.714H5.379L0 1.07703H3.641L7.08 11.126L10.762 1.07703H13.837L17.5 11.126L20.957 1.07703H24.578Z" fill="#708CEC"/>
<path d="M51.0777 16.7141V12.6071H52.8577L55.7297 16.7131H59.9387L56.5807 11.9191C57.129 11.6546 57.6285 11.2988 58.0577 10.8671C58.6113 10.3305 59.0455 9.68301 59.3317 8.96706C59.6272 8.21995 59.7782 7.42351 59.7767 6.62006C59.7782 5.85938 59.6269 5.10614 59.3317 4.40506L47.6387 3.21606V16.7161L51.0777 16.7141ZM51.0777 4.51406H53.4037C55.3557 4.51406 56.3367 5.21406 56.3367 6.61406C56.3465 6.94638 56.2889 7.27724 56.1672 7.58663C56.0455 7.89602 55.8623 8.17751 55.6287 8.41406C55.3304 8.68693 54.9784 8.89444 54.5952 9.02325C54.2121 9.15206 53.8062 9.19935 53.4037 9.16206H51.0777V4.51406Z" fill="#A9BAF4"/>
<path d="M65.9859 16.714H67.3859V11.555L69.2859 9.97701L75.9409 16.713H80.7759L71.9159 7.75201L74.0909 5.91101L69.3269 5.42601L67.3849 7.06501V5.23001L63.9429 4.88V16.714H65.9859Z" fill="#A9BAF4"/>
<path d="M63.604 37.393H66.426V33.954H59.771V21.756H56.332V32.649L63.351 37.393H63.604Z" fill="#A9BAF4"/>
<path d="M52.241 28.664C52.3373 28.2154 52.3866 27.7579 52.388 27.299C52.4013 26.4625 52.2285 25.6335 51.882 24.872C51.5312 24.1483 51.0087 23.5215 50.36 23.046C49.7736 22.6066 49.1122 22.2776 48.408 22.075C47.6313 21.8543 46.8275 21.7435 46.02 21.746H40.25L45.307 25.16H46.02C46.4563 25.1561 46.8914 25.2072 47.315 25.312C47.663 25.3952 47.9923 25.5427 48.286 25.747C48.4608 25.8905 48.611 26.0614 48.731 26.253C48.8979 26.5627 48.9752 26.9128 48.954 27.264C48.9596 27.3795 48.9495 27.4952 48.924 27.608L51.96 29.63V29.6C52.0798 29.2965 52.1738 28.9834 52.241 28.664Z" fill="#A9BAF4"/>
<path d="M74.295 34.055L72.823 37.393H69.0811L75.858 21.746H79.439L86.239 37.383H82.476L81.036 34.046L74.295 34.055ZM77.653 26.297L75.772 30.626H79.5551L77.653 26.297Z" fill="#A9BAF4"/>
<path d="M97.4171 37.757C96.3175 37.761 95.2287 37.5409 94.2171 37.11C93.7332 36.9102 93.2719 36.6595 92.8411 36.362C92.4004 36.0626 91.9874 35.7242 91.6071 35.351C90.8605 34.6124 90.269 33.7322 89.8671 32.762C89.4398 31.7507 89.2197 30.6639 89.2197 29.566C89.2197 28.4681 89.4398 27.3814 89.8671 26.37C90.2692 25.3941 90.8605 24.5073 91.6069 23.7609C92.3534 23.0145 93.2401 22.4232 94.2161 22.021C95.2239 21.5937 96.3074 21.3735 97.4021 21.3735C98.4968 21.3735 99.5803 21.5937 100.588 22.021C101.565 22.4262 102.452 23.021 103.197 23.771L100.775 26.212C100.345 25.7658 99.829 25.4113 99.2581 25.17C98.6765 24.9343 98.0546 24.8141 97.4271 24.816C96.7909 24.8114 96.1606 24.9387 95.5761 25.19C95.0113 25.4285 94.4966 25.7716 94.0591 26.201C93.6285 26.6377 93.2854 27.1526 93.0481 27.718C92.801 28.3021 92.6737 28.9298 92.6737 29.564C92.6737 30.1982 92.801 30.826 93.0481 31.41C93.5338 32.5474 94.4398 33.4533 95.5771 33.939C96.1609 34.1926 96.7916 34.3201 97.4281 34.313C98.0558 34.3174 98.6782 34.197 99.2591 33.959C99.8319 33.7213 100.349 33.3664 100.776 32.917L103.203 35.344C102.462 36.1042 101.575 36.7057 100.594 37.112C99.5897 37.5401 98.5088 37.7595 97.4171 37.757Z" fill="#A9BAF4"/>
<path d="M110.753 25.195V27.521H117.085V30.96H110.753V33.954H117.327V37.393H107.327V21.746H117.327V25.185L110.753 25.195Z" fill="#A9BAF4"/>
<path d="M43.1894 8.865C43.1894 3.965 39.4894 0 34.9364 0C33.7474 0.00972075 32.5756 0.283978 31.5058 0.802876C30.436 1.32177 29.4951 2.0723 28.7514 3C27.6179 3.05753 26.5506 3.55131 25.773 4.37798C24.9953 5.20465 24.5676 6.30011 24.5794 7.435C24.5766 8.08879 24.7176 8.7352 24.9923 9.32845C25.2671 9.9217 25.6689 10.4473 26.1694 10.868L23.1694 21.539C22.7245 21.8469 22.3649 22.2626 22.1243 22.7472C21.8836 23.2318 21.7698 23.7695 21.7934 24.31C21.7698 24.8505 21.8836 25.3882 22.1243 25.8728C22.3649 26.3574 22.7245 26.7731 23.1694 27.081L26.5574 39.163C22.6834 39.239 19.7754 39.563 19.7754 39.957V41.181C19.7754 41.631 23.6134 42 28.3754 42C33.1374 42 36.9754 41.631 36.9754 41.181V39.952C36.9754 39.563 34.0574 39.234 30.1754 39.158L26.3234 25.594C26.6201 24.7634 26.6201 23.8556 26.3234 23.025L28.6804 14.635C29.35 15.4831 30.1827 16.1886 31.1294 16.7097C32.0761 17.2307 33.1176 17.5569 34.1924 17.669C33.1404 17.0085 32.2574 16.1112 31.6137 15.0488C30.9701 13.9864 30.5837 12.7883 30.4854 11.55C30.421 11.0841 30.3876 10.6144 30.3854 10.144C30.3801 9.86899 30.3902 9.5939 30.4154 9.32C30.4229 9.18091 30.4383 9.04236 30.4614 8.905C30.4611 8.77561 30.4766 8.64667 30.5074 8.521C30.5534 8.395 30.5734 8.137 30.6134 7.95C30.6196 7.8821 30.633 7.81505 30.6534 7.75C30.7044 7.527 30.7644 7.31 30.8304 7.093C30.8281 7.06605 30.8281 7.03895 30.8304 7.012C30.9064 6.774 30.9874 6.547 31.0734 6.324C31.3317 5.66562 31.6714 5.04212 32.0844 4.468C32.5685 3.75888 33.2115 3.17263 33.9622 2.75595C34.7129 2.33928 35.5505 2.1037 36.4084 2.068C39.7264 2.068 42.4164 5.694 42.4164 10.16C42.4205 11.4334 42.1907 12.6966 41.7384 13.887C42.6917 12.3859 43.1953 10.6432 43.1894 8.865Z" fill="#708CEC"/>
<path d="M36.6902 6.42798C37.1306 6.78333 37.4825 7.23591 37.7185 7.75019C37.9545 8.26446 38.068 8.82643 38.0502 9.39198C38.0502 11.292 36.8212 12.836 35.3042 12.836H35.1982C35.598 13.1371 36.0838 13.3018 36.5842 13.306C38.1012 13.306 39.3302 11.789 39.3302 9.86698C39.3302 7.94498 38.1562 6.49898 36.6902 6.42798Z" fill="#627FE3"/>
</svg>
